<?xml version="1.0" encoding="UTF-8"?>
<svg id="Layer_2" data-name="Layer 2" xmlns="http://www.w3.org/2000/svg" viewBox="0 0 900.26 235.87">
  <defs>
    <style>
      .cls-1 {
        fill: #161424;
      }
    </style>
  </defs>
  <g id="Layer_1-2" data-name="Layer 1">
    <g>
      <path class="cls-1" d="M188,158.3c0,33.16-8.36,52.48-32.87,52.48s-32.87-19.32-32.87-52.48v-60.84h-28.26v60.84c0,33.16-8.36,52.48-32.87,52.48s-32.87-19.32-32.87-52.48v-60.84H0v60.84c0,50.46,20.76,77.57,61.13,77.57,21.05,0,36.91-8.65,47-23.36,10.38,14.71,25.95,23.36,47,23.36,40.37,0,61.13-27.1,61.13-77.57v-60.84h-28.26v60.84Z"/>
      <path class="cls-1" d="M258.95,54.21c-8.36,0-15.28,6.92-15.28,15.28s6.92,15.28,15.28,15.28,15.28-6.92,15.28-15.28-6.92-15.28-15.28-15.28Z"/>
      <rect class="cls-1" x="244.82" y="97.46" width="28.26" height="132.64"/>
      <polygon class="cls-1" points="294.42 97.46 294.42 120.53 378.33 120.53 291.53 230.1 425.04 230.1 425.04 207.03 341.71 207.03 427.92 97.46 294.42 97.46"/>
      <path class="cls-1" d="M510.11,91.69c-42.96,0-74.97,32.87-74.97,72.09,0,41.81,29.7,72.09,74.97,72.09,17.3,0,39.5-6.63,54.5-23.93v22.49h20.47v-59.98c0-55.65-32.01-82.76-74.97-82.76ZM510.11,212.22c-27.1,0-46.71-21.05-46.71-48.44s19.61-49.02,46.71-49.02,46.71,21.34,46.71,49.02-19.61,48.44-46.71,48.44Z"/>
      <path class="cls-1" d="M673.9,91.69c-37.77,0-62.86,28.55-62.86,59.4v79.01h28.26v-79.01c0-25.09,18.17-36.91,34.6-36.91s34.6,11.82,34.6,36.91h27.39c0-30.85-24.22-59.4-62-59.4Z"/>
      <path class="cls-1" d="M872,0v111.01c-13.55-13.26-32.58-19.32-46.71-19.32-42.96,0-74.97,32.87-74.97,72.09s32.01,72.09,74.97,72.09c17.59,0,39.79-6.63,54.79-23.93v22.49h20.18V0h-28.26ZM825.29,212.22c-27.1,0-46.71-20.76-46.71-48.44s19.61-48.44,46.71-48.44,46.71,20.76,46.71,48.44-19.61,48.44-46.71,48.44Z"/>
    </g>
  </g>
</svg>