<?xml version="1.0" encoding="UTF-8"?>
<svg id="Layer_2" data-name="Layer 2" xmlns="http://www.w3.org/2000/svg" viewBox="0 0 306.97 297.49">
  <defs>
    <style>
      .cls-1 {
        fill: #231f20;
      }

      .cls-2 {
        fill: #636aff;
        stroke: #231f20;
        stroke-miterlimit: 10;
        stroke-width: .25px;
      }
    </style>
  </defs>
  <g id="Layer_1-2" data-name="Layer 1">
    <g>
      <path class="cls-1" d="M71.01,181.83l2.42-1.98,5.94-31.92s4.99-29.35,5.11-39.66.7-22.15-3.11-33.79c-3.82-11.64-8-23.84-9.59-25.07-1.58-1.23-15.36-4-29.34,1.05-13.98,5.04-32.94,23.31-35.48,28.74,0,0-6.92,6.91-5.6-4.49,1.33-11.4,12.44-34.92,22.09-46.36C33.1,16.89,43.02,3.94,58.97,1.17c15.95-2.78,37.52.45,58.15,17.25,20.63,16.8,37.63,33.8,43.68,41.59,6.05,7.79,29.92,41.92,37.71,57.76,7.79,15.84,19.99,37.28,19.99,37.28,0,0,16.26,1.94,22.9,3.72,6.64,1.78,38.61,10.44,56.57,29.1,17.96,18.66,3.56,40.42-2.34,46.64-5.9,6.22-37.96,41.59-124.36,56.83-86.4,15.24-156.91-.1-169.6-33.12-12.69-33.02,69.34-76.41,69.34-76.41Z"/>
      <path class="cls-2" d="M65.1,224.68c1.48,18.85,10.3,23.31,27.66,27.17,24.62,5.47,56.61,3.04,80.88-3.28,22-5.73,76.66-24.97,65.35-56.35-31.84-54.15-55.57-115.88-103.11-158.7C113.95,13.77,80.83-9.16,50.32,4.02,30.46,12.6,9.13,46.43,3.2,66.72c-.8,2.75-4.98,17.18,1.46,14.27,2.94-1.32,11.95-12.93,15.35-16.12,15.26-14.35,29.6-19.58,50.42-15.28l-15.36-20.72c-1.23-1.83,6.8,7.42,7.44,8.24,19.1,24.37,24.57,50.18,21.22,80.54-3.84,34.77-12.46,67.03-18.3,101.29.21-13.14,5.59-25.47,6.97-38.24-21.16,11.19-45.31,22.98-60.95,41.74-21.22,25.44-10.92,48.39,16.98,61.28,66.29,30.6,213.32,7.39,264.2-45.86,46.91-49.1-33.9-79.57-73.06-82.82-1.59-.13-1.05,0-.61.86,3.87,7.59,14.14,25.97,18.95,32.32,1.37,1.81,5.62,5.52,7.29,7.13,15.81,15.23-.32,28.82-14.19,36.76-34.81,19.93-110.44,33.74-148.59,19.48-13.99-5.23-18.1-10.76-17.3-26.9Z"/>
    </g>
  </g>
</svg>